<mxfile host="app.diagrams.net" modified="2021-12-22T09:31:24.171Z" agent="5.0 (Windows NT 10.0; Win64; x64) AppleWebKit/537.36 (KHTML, like Gecko) Chrome/95.0.4638.69 Safari/537.36 Edg/95.0.1020.44" etag="syHonYs1xNvfLKng72Mq" version="15.7.3" type="github">
  <diagram id="C5RBs43oDa-KdzZeNtuy" name="Page-1">
    <mxGraphModel dx="841" dy="774" grid="0" gridSize="10" guides="1" tooltips="1" connect="1" arrows="1" fold="1" page="1" pageScale="1" pageWidth="827" pageHeight="1169" math="0" shadow="0">
      <root>
        <mxCell id="WIyWlLk6GJQsqaUBKTNV-0" />
        <mxCell id="WIyWlLk6GJQsqaUBKTNV-1" parent="WIyWlLk6GJQsqaUBKTNV-0" />
        <mxCell id="I2wPDE4DJpuAJyD5hWHT-42" value="" style="rounded=0;whiteSpace=wrap;html=1;dashed=1;" vertex="1" parent="WIyWlLk6GJQsqaUBKTNV-1">
          <mxGeometry x="326" y="85" width="160" height="275" as="geometry" />
        </mxCell>
        <mxCell id="I2wPDE4DJpuAJyD5hWHT-13" value="" style="edgeStyle=orthogonalEdgeStyle;rounded=0;orthogonalLoop=1;jettySize=auto;html=1;" edge="1" parent="WIyWlLk6GJQsqaUBKTNV-1" source="I2wPDE4DJpuAJyD5hWHT-2" target="I2wPDE4DJpuAJyD5hWHT-12">
          <mxGeometry relative="1" as="geometry" />
        </mxCell>
        <mxCell id="I2wPDE4DJpuAJyD5hWHT-2" value="Change Terraform code" style="rounded=1;whiteSpace=wrap;html=1;fontSize=12;glass=0;strokeWidth=1;shadow=0;" vertex="1" parent="WIyWlLk6GJQsqaUBKTNV-1">
          <mxGeometry x="160" y="155" width="120" height="40" as="geometry" />
        </mxCell>
        <mxCell id="I2wPDE4DJpuAJyD5hWHT-11" value="" style="edgeStyle=orthogonalEdgeStyle;rounded=0;orthogonalLoop=1;jettySize=auto;html=1;" edge="1" parent="WIyWlLk6GJQsqaUBKTNV-1" source="I2wPDE4DJpuAJyD5hWHT-6" target="I2wPDE4DJpuAJyD5hWHT-10">
          <mxGeometry relative="1" as="geometry" />
        </mxCell>
        <mxCell id="I2wPDE4DJpuAJyD5hWHT-6" value="PR approved" style="rounded=1;whiteSpace=wrap;html=1;fontSize=12;glass=0;strokeWidth=1;shadow=0;" vertex="1" parent="WIyWlLk6GJQsqaUBKTNV-1">
          <mxGeometry x="160" y="280" width="120" height="40" as="geometry" />
        </mxCell>
        <mxCell id="I2wPDE4DJpuAJyD5hWHT-10" value="PR completed" style="rounded=1;whiteSpace=wrap;html=1;fontSize=12;glass=0;strokeWidth=1;shadow=0;" vertex="1" parent="WIyWlLk6GJQsqaUBKTNV-1">
          <mxGeometry x="160" y="340" width="120" height="40" as="geometry" />
        </mxCell>
        <mxCell id="I2wPDE4DJpuAJyD5hWHT-14" value="" style="edgeStyle=orthogonalEdgeStyle;rounded=0;orthogonalLoop=1;jettySize=auto;html=1;" edge="1" parent="WIyWlLk6GJQsqaUBKTNV-1" source="I2wPDE4DJpuAJyD5hWHT-12" target="I2wPDE4DJpuAJyD5hWHT-6">
          <mxGeometry relative="1" as="geometry" />
        </mxCell>
        <mxCell id="I2wPDE4DJpuAJyD5hWHT-12" value="Create PR" style="rounded=1;whiteSpace=wrap;html=1;fontSize=12;glass=0;strokeWidth=1;shadow=0;" vertex="1" parent="WIyWlLk6GJQsqaUBKTNV-1">
          <mxGeometry x="160" y="220" width="120" height="40" as="geometry" />
        </mxCell>
        <mxCell id="I2wPDE4DJpuAJyD5hWHT-29" value="" style="edgeStyle=orthogonalEdgeStyle;rounded=0;orthogonalLoop=1;jettySize=auto;html=1;" edge="1" parent="WIyWlLk6GJQsqaUBKTNV-1" source="I2wPDE4DJpuAJyD5hWHT-17" target="I2wPDE4DJpuAJyD5hWHT-27">
          <mxGeometry relative="1" as="geometry" />
        </mxCell>
        <mxCell id="I2wPDE4DJpuAJyD5hWHT-17" value="Terraform init" style="rounded=1;whiteSpace=wrap;html=1;fontSize=12;glass=0;strokeWidth=1;shadow=0;" vertex="1" parent="WIyWlLk6GJQsqaUBKTNV-1">
          <mxGeometry x="336" y="95" width="120" height="40" as="geometry" />
        </mxCell>
        <mxCell id="I2wPDE4DJpuAJyD5hWHT-25" value="A new release is triggered" style="text;html=1;strokeColor=none;fillColor=none;align=center;verticalAlign=middle;whiteSpace=wrap;rounded=0;" vertex="1" parent="WIyWlLk6GJQsqaUBKTNV-1">
          <mxGeometry x="540" y="65" width="90" height="30" as="geometry" />
        </mxCell>
        <mxCell id="I2wPDE4DJpuAJyD5hWHT-41" value="" style="edgeStyle=orthogonalEdgeStyle;rounded=0;orthogonalLoop=1;jettySize=auto;html=1;entryX=0.5;entryY=0;entryDx=0;entryDy=0;" edge="1" parent="WIyWlLk6GJQsqaUBKTNV-1" source="I2wPDE4DJpuAJyD5hWHT-26" target="I2wPDE4DJpuAJyD5hWHT-47">
          <mxGeometry relative="1" as="geometry">
            <mxPoint x="396" y="365" as="targetPoint" />
          </mxGeometry>
        </mxCell>
        <mxCell id="I2wPDE4DJpuAJyD5hWHT-26" value="Terraform apply" style="rounded=1;whiteSpace=wrap;html=1;fontSize=12;glass=0;strokeWidth=1;shadow=0;" vertex="1" parent="WIyWlLk6GJQsqaUBKTNV-1">
          <mxGeometry x="336" y="305" width="120" height="40" as="geometry" />
        </mxCell>
        <mxCell id="I2wPDE4DJpuAJyD5hWHT-35" value="" style="edgeStyle=orthogonalEdgeStyle;rounded=0;orthogonalLoop=1;jettySize=auto;html=1;" edge="1" parent="WIyWlLk6GJQsqaUBKTNV-1" source="I2wPDE4DJpuAJyD5hWHT-27" target="I2wPDE4DJpuAJyD5hWHT-34">
          <mxGeometry relative="1" as="geometry" />
        </mxCell>
        <mxCell id="I2wPDE4DJpuAJyD5hWHT-27" value="Terraform plan" style="rounded=1;whiteSpace=wrap;html=1;fontSize=12;glass=0;strokeWidth=1;shadow=0;" vertex="1" parent="WIyWlLk6GJQsqaUBKTNV-1">
          <mxGeometry x="336" y="155" width="120" height="40" as="geometry" />
        </mxCell>
        <mxCell id="I2wPDE4DJpuAJyD5hWHT-36" value="" style="edgeStyle=orthogonalEdgeStyle;rounded=0;orthogonalLoop=1;jettySize=auto;html=1;" edge="1" parent="WIyWlLk6GJQsqaUBKTNV-1" source="I2wPDE4DJpuAJyD5hWHT-34" target="I2wPDE4DJpuAJyD5hWHT-26">
          <mxGeometry relative="1" as="geometry" />
        </mxCell>
        <mxCell id="I2wPDE4DJpuAJyD5hWHT-37" value="Yes" style="edgeLabel;html=1;align=center;verticalAlign=middle;resizable=0;points=[];" vertex="1" connectable="0" parent="I2wPDE4DJpuAJyD5hWHT-36">
          <mxGeometry x="0.2609" relative="1" as="geometry">
            <mxPoint y="-12" as="offset" />
          </mxGeometry>
        </mxCell>
        <mxCell id="I2wPDE4DJpuAJyD5hWHT-38" style="edgeStyle=orthogonalEdgeStyle;rounded=0;orthogonalLoop=1;jettySize=auto;html=1;exitX=1;exitY=0.5;exitDx=0;exitDy=0;entryX=1;entryY=0.5;entryDx=0;entryDy=0;" edge="1" parent="WIyWlLk6GJQsqaUBKTNV-1" source="I2wPDE4DJpuAJyD5hWHT-34" target="I2wPDE4DJpuAJyD5hWHT-27">
          <mxGeometry relative="1" as="geometry" />
        </mxCell>
        <mxCell id="I2wPDE4DJpuAJyD5hWHT-39" value="No" style="edgeLabel;html=1;align=center;verticalAlign=middle;resizable=0;points=[];" vertex="1" connectable="0" parent="I2wPDE4DJpuAJyD5hWHT-38">
          <mxGeometry x="0.3913" y="-1" relative="1" as="geometry">
            <mxPoint y="24" as="offset" />
          </mxGeometry>
        </mxCell>
        <mxCell id="I2wPDE4DJpuAJyD5hWHT-34" value="Plan approved?" style="rhombus;whiteSpace=wrap;html=1;rounded=1;shadow=0;strokeWidth=1;glass=0;" vertex="1" parent="WIyWlLk6GJQsqaUBKTNV-1">
          <mxGeometry x="336" y="215" width="120" height="50" as="geometry" />
        </mxCell>
        <mxCell id="I2wPDE4DJpuAJyD5hWHT-43" value="" style="endArrow=classic;html=1;rounded=0;exitX=0.5;exitY=1;exitDx=0;exitDy=0;entryX=0;entryY=0.5;entryDx=0;entryDy=0;edgeStyle=orthogonalEdgeStyle;" edge="1" parent="WIyWlLk6GJQsqaUBKTNV-1" source="I2wPDE4DJpuAJyD5hWHT-10" target="I2wPDE4DJpuAJyD5hWHT-17">
          <mxGeometry width="50" height="50" relative="1" as="geometry">
            <mxPoint x="50" y="350" as="sourcePoint" />
            <mxPoint x="100" y="300" as="targetPoint" />
          </mxGeometry>
        </mxCell>
        <mxCell id="I2wPDE4DJpuAJyD5hWHT-46" style="edgeStyle=orthogonalEdgeStyle;rounded=0;orthogonalLoop=1;jettySize=auto;html=1;exitX=0.5;exitY=1;exitDx=0;exitDy=0;entryX=0.5;entryY=0;entryDx=0;entryDy=0;" edge="1" parent="WIyWlLk6GJQsqaUBKTNV-1" source="I2wPDE4DJpuAJyD5hWHT-44" target="I2wPDE4DJpuAJyD5hWHT-2">
          <mxGeometry relative="1" as="geometry" />
        </mxCell>
        <mxCell id="I2wPDE4DJpuAJyD5hWHT-44" value="Start" style="ellipse;whiteSpace=wrap;html=1;dashed=1;" vertex="1" parent="WIyWlLk6GJQsqaUBKTNV-1">
          <mxGeometry x="195" y="95" width="50" height="25" as="geometry" />
        </mxCell>
        <mxCell id="I2wPDE4DJpuAJyD5hWHT-47" value="End" style="ellipse;whiteSpace=wrap;html=1;dashed=1;" vertex="1" parent="WIyWlLk6GJQsqaUBKTNV-1">
          <mxGeometry x="371" y="370" width="50" height="25" as="geometry" />
        </mxCell>
        <mxCell id="I2wPDE4DJpuAJyD5hWHT-49" value="" style="curved=1;endArrow=classic;html=1;rounded=0;" edge="1" parent="WIyWlLk6GJQsqaUBKTNV-1" source="I2wPDE4DJpuAJyD5hWHT-25">
          <mxGeometry width="50" height="50" relative="1" as="geometry">
            <mxPoint x="430" y="80" as="sourcePoint" />
            <mxPoint x="490" y="120" as="targetPoint" />
            <Array as="points">
              <mxPoint x="520" y="90" />
            </Array>
          </mxGeometry>
        </mxCell>
      </root>
    </mxGraphModel>
  </diagram>
</mxfile>
